<svg width="40" height="40" viewBox="0 0 40 40" fill="none" xmlns="http://www.w3.org/2000/svg">
<g clip-path="url(#clip0_156_25807)">
<circle cx="20" cy="20" r="20" fill="#F0C742"/>
<path d="M17.7374 9.28739C18.0591 9.28735 18.3768 9.35989 18.6686 9.49993C18.9603 9.63998 19.2189 9.84417 19.4265 10.0982C19.634 10.3523 19.7854 10.6502 19.8701 10.971C19.9548 11.2918 19.9708 11.6279 19.9169 11.9558L22.0975 12.3329C22.1816 11.8179 22.1797 11.2919 22.092 10.7776C22.5102 10.5067 23.0041 10.3884 23.4949 10.4415C23.9857 10.4945 24.4452 10.7158 24.8003 11.0702C25.1554 11.4246 25.3855 11.8916 25.4541 12.3969C25.5227 12.9022 25.4258 13.4167 25.1788 13.8585H13.3166C13.145 13.8583 12.9759 13.8168 12.8225 13.7373C12.6692 13.6578 12.5358 13.5425 12.433 13.4005C12.3302 13.2585 12.2608 13.0937 12.2302 12.9192C12.1997 12.7447 12.2088 12.5652 12.257 12.3949C12.3051 12.2247 12.391 12.0684 12.5077 11.9384C12.6243 11.8083 12.7687 11.7082 12.9293 11.6458C13.0899 11.5835 13.2623 11.5607 13.4329 11.5792C13.6036 11.5976 13.7677 11.6569 13.9123 11.7523C14.0611 11.8509 14.2307 11.9112 14.4068 11.928C14.5828 11.9448 14.7602 11.9177 14.924 11.8489C15.0878 11.7802 15.2333 11.6718 15.3482 11.5329C15.4631 11.394 15.5441 11.2287 15.5845 11.0507C15.6984 10.5488 15.9731 10.1014 16.3639 9.78134C16.7548 9.46123 17.2388 9.28716 17.7374 9.28739ZM19.4129 7.34126C18.4141 6.91813 17.3001 6.88744 16.281 7.25499C15.2618 7.62254 14.4079 8.36292 13.8802 9.33653C13.1707 9.20976 12.4405 9.32526 11.8001 9.66558C11.1597 10.0059 10.6438 10.5525 10.3304 11.2229C10.0171 11.8932 9.92328 12.6508 10.0632 13.3811C10.2032 14.1114 10.5693 14.7748 11.1061 15.2709V28.7145C11.1061 29.3206 11.339 29.902 11.7536 30.3306C12.1681 30.7592 12.7303 31 13.3166 31H24.3687C24.955 31 25.5172 30.7592 25.9317 30.3306C26.3463 29.902 26.5791 29.3206 26.5791 28.7145H28.7896C29.3758 28.7145 29.938 28.4737 30.3526 28.045C30.7671 27.6164 31 27.0351 31 26.4289V18.4295C31 17.8234 30.7671 17.242 30.3526 16.8134C29.938 16.3848 29.3758 16.144 28.7896 16.144H26.5791V15.7395C27.2662 14.9351 27.6577 13.9065 27.685 12.8337C27.7123 11.7609 27.3737 10.7124 26.7285 9.87185C26.0833 9.03126 25.1726 8.45219 24.156 8.23607C23.1394 8.01994 22.0816 8.18054 21.168 8.68973C20.7014 8.09537 20.0979 7.6317 19.4129 7.34126ZM26.5791 26.4289V18.4295H28.7896V26.4289H26.5791ZM15.527 18.4295H17.7374V26.4289H15.527V18.4295ZM19.9479 18.4295H22.1583V26.4289H19.9479V18.4295Z" fill="white"/>
</g>
<defs>
<clipPath id="clip0_156_25807">
<rect width="40" height="40" fill="white"/>
</clipPath>
</defs>
</svg>
