<svg width="28" height="28" viewBox="0 0 28 28" fill="none" xmlns="http://www.w3.org/2000/svg">
<path d="M10.5002 3.5C10.8397 3.49996 11.1751 3.57401 11.4831 3.71699C11.791 3.85996 12.064 4.06842 12.2831 4.32781C12.5022 4.5872 12.662 4.89128 12.7514 5.21881C12.8408 5.54634 12.8577 5.88944 12.8008 6.22417L15.1027 6.60917C15.1914 6.08344 15.1895 5.54639 15.0968 5.02133C15.5383 4.74486 16.0596 4.62407 16.5777 4.67821C17.0959 4.73235 17.5809 4.95831 17.9557 5.3201C18.3305 5.68188 18.5735 6.15868 18.6459 6.67454C18.7183 7.19041 18.616 7.71567 18.3553 8.16667H5.83349C5.65241 8.16647 5.47386 8.12412 5.31197 8.04298C5.15009 7.96183 5.00931 7.84412 4.90079 7.69915C4.79227 7.55419 4.71899 7.38595 4.68674 7.20776C4.6545 7.02957 4.66417 6.84632 4.715 6.67252C4.76583 6.49871 4.85642 6.33913 4.9796 6.2064C5.10278 6.07366 5.25517 5.97142 5.4247 5.90778C5.59422 5.84413 5.77624 5.82082 5.95634 5.83969C6.13644 5.85856 6.30967 5.91909 6.46233 6.0165C6.61947 6.11715 6.79847 6.17864 6.9843 6.1958C7.17013 6.21296 7.35736 6.18529 7.53028 6.11512C7.7032 6.04494 7.85677 5.93431 7.97808 5.79251C8.0994 5.6507 8.18493 5.48187 8.22749 5.30017C8.34776 4.78777 8.63773 4.33107 9.05031 4.00427C9.46289 3.67747 9.97383 3.49976 10.5002 3.5ZM12.2688 1.51317C11.2145 1.08119 10.0385 1.04986 8.96271 1.4251C7.88687 1.80033 6.98548 2.55619 6.42849 3.55017C5.6795 3.42074 4.90873 3.53866 4.23269 3.88609C3.55665 4.23353 3.01209 4.79159 2.68131 5.47594C2.35054 6.16029 2.25154 6.93371 2.39927 7.67931C2.547 8.42491 2.93343 9.10215 3.50016 9.60867V23.3333C3.50016 23.9522 3.74599 24.5457 4.18358 24.9832C4.62116 25.4208 5.21465 25.6667 5.83349 25.6667H17.5002C18.119 25.6667 18.7125 25.4208 19.1501 24.9832C19.5877 24.5457 19.8335 23.9522 19.8335 23.3333H22.1668C22.7857 23.3333 23.3792 23.0875 23.8167 22.6499C24.2543 22.2123 24.5002 21.6188 24.5002 21V12.8333C24.5002 12.2145 24.2543 11.621 23.8167 11.1834C23.3792 10.7458 22.7857 10.5 22.1668 10.5H19.8335V10.087C20.5588 9.26584 20.972 8.21569 21.0008 7.12048C21.0296 6.02527 20.6722 4.95484 19.9911 4.09668C19.31 3.23851 18.3487 2.64733 17.2756 2.42669C16.2025 2.20604 15.0859 2.37 14.1215 2.88983C13.629 2.28305 12.9919 1.80968 12.2688 1.51317ZM19.8335 21V12.8333H22.1668V21H19.8335ZM8.16683 12.8333H10.5002V21H8.16683V12.8333ZM12.8335 12.8333H15.1668V21H12.8335V12.8333Z" fill="black"/>
</svg>
