<svg width="28" height="28" viewBox="0 0 28 28" fill="none" xmlns="http://www.w3.org/2000/svg">
<path d="M5.83342 24.5C5.50286 24.5 5.22597 24.388 5.00275 24.164C4.77953 23.94 4.66753 23.6631 4.66675 23.3333C4.66597 23.0036 4.77797 22.7267 5.00275 22.5027C5.22753 22.2787 5.50442 22.1667 5.83342 22.1667H22.1668C22.4973 22.1667 22.7746 22.2787 22.9986 22.5027C23.2226 22.7267 23.3342 23.0036 23.3334 23.3333C23.3326 23.6631 23.2206 23.9404 22.9974 24.1652C22.7742 24.3899 22.4973 24.5016 22.1668 24.5H5.83342ZM9.33342 19.8333C8.05009 19.8333 6.95147 19.3764 6.03759 18.4625C5.1237 17.5486 4.66675 16.45 4.66675 15.1667V5.83333C4.66675 5.19167 4.89542 4.64256 5.35275 4.186C5.81009 3.72944 6.3592 3.50078 7.00009 3.5H23.3334C23.9751 3.5 24.5246 3.72867 24.9819 4.186C25.4393 4.64333 25.6675 5.19244 25.6668 5.83333V9.33333C25.6668 9.975 25.4385 10.5245 24.9819 10.9818C24.5254 11.4392 23.9759 11.6674 23.3334 11.6667H21.0001V15.1667C21.0001 16.45 20.5431 17.5486 19.6293 18.4625C18.7154 19.3764 17.6168 19.8333 16.3334 19.8333H9.33342ZM21.0001 9.33333H23.3334V5.83333H21.0001V9.33333Z" fill="black"/>
</svg>
