<svg width="40" height="40" viewBox="0 0 40 40" fill="none" xmlns="http://www.w3.org/2000/svg">
<g clip-path="url(#clip0_156_25798)">
<circle cx="20" cy="20" r="20" fill="#8FC9BD"/>
<path d="M13 29C12.7167 29 12.4793 28.904 12.288 28.712C12.0967 28.52 12.0007 28.2827 12 28C11.9993 27.7173 12.0953 27.48 12.288 27.288C12.4807 27.096 12.718 27 13 27H27C27.2833 27 27.521 27.096 27.713 27.288C27.905 27.48 28.0007 27.7173 28 28C27.9993 28.2827 27.9033 28.5203 27.712 28.713C27.5207 28.9057 27.2833 29.0013 27 29H13ZM16 25C14.9 25 13.9583 24.6083 13.175 23.825C12.3917 23.0417 12 22.1 12 21V13C12 12.45 12.196 11.9793 12.588 11.588C12.98 11.1967 13.4507 11.0007 14 11H28C28.55 11 29.021 11.196 29.413 11.588C29.805 11.98 30.0007 12.4507 30 13V16C30 16.55 29.8043 17.021 29.413 17.413C29.0217 17.805 28.5507 18.0007 28 18H26V21C26 22.1 25.6083 23.0417 24.825 23.825C24.0417 24.6083 23.1 25 22 25H16ZM26 16H28V13H26V16Z" fill="white"/>
</g>
<defs>
<clipPath id="clip0_156_25798">
<rect width="40" height="40" fill="white"/>
</clipPath>
</defs>
</svg>
