<svg width="40" height="40" viewBox="0 0 40 40" fill="none" xmlns="http://www.w3.org/2000/svg">
<g clip-path="url(#clip0_156_25804)">
<circle cx="20" cy="20" r="20" fill="#525463"/>
<path fill-rule="evenodd" clip-rule="evenodd" d="M16.5 9C15.9095 8.99988 15.3285 9.14917 14.8112 9.43397C14.294 9.71877 13.8571 10.1298 13.5414 10.6289C13.2257 11.1279 13.0414 11.6987 13.0057 12.2881C12.97 12.8776 13.0839 13.4665 13.337 14H11C10.7348 14 10.4804 14.1054 10.2929 14.2929C10.1054 14.4804 10 14.7348 10 15V19C10 19.2652 10.1054 19.5196 10.2929 19.7071C10.4804 19.8946 10.7348 20 11 20V27C11 27.7956 11.3161 28.5587 11.8787 29.1213C12.4413 29.6839 13.2044 30 14 30H26C26.7956 30 27.5587 29.6839 28.1213 29.1213C28.6839 28.5587 29 27.7956 29 27V20C29.2652 20 29.5196 19.8946 29.7071 19.7071C29.8946 19.5196 30 19.2652 30 19V15C30 14.7348 29.8946 14.4804 29.7071 14.2929C29.5196 14.1054 29.2652 14 29 14H26.663C26.9161 13.4665 27.03 12.8776 26.9943 12.2881C26.9586 11.6987 26.7743 11.1279 26.4586 10.6289C26.1429 10.1298 25.706 9.71877 25.1888 9.43397C24.6715 9.14917 24.0905 8.99988 23.5 9C22.8289 8.99993 22.1663 9.14995 21.5607 9.43908C20.9551 9.72821 20.4219 10.1491 20 10.671C19.5781 10.1491 19.0449 9.72821 18.4393 9.43908C17.8337 9.14995 17.1711 8.99993 16.5 9ZM21 28H26C26.2652 28 26.5196 27.8946 26.7071 27.7071C26.8946 27.5196 27 27.2652 27 27V20H21V28ZM19 20V28H14C13.7348 28 13.4804 27.8946 13.2929 27.7071C13.1054 27.5196 13 27.2652 13 27V20H19ZM23.5 14C23.8978 14 24.2794 13.842 24.5607 13.5607C24.842 13.2794 25 12.8978 25 12.5C25 12.1022 24.842 11.7206 24.5607 11.4393C24.2794 11.158 23.8978 11 23.5 11C22.837 11 22.2011 11.2634 21.7322 11.7322C21.2634 12.2011 21 12.837 21 13.5V14H23.5ZM19 14V13.5C19 12.837 18.7366 12.2011 18.2678 11.7322C17.7989 11.2634 17.163 11 16.5 11C16.1022 11 15.7206 11.158 15.4393 11.4393C15.158 11.7206 15 12.1022 15 12.5C15 12.8978 15.158 13.2794 15.4393 13.5607C15.7206 13.842 16.1022 14 16.5 14H19Z" fill="white"/>
</g>
<defs>
<clipPath id="clip0_156_25804">
<rect width="40" height="40" fill="white"/>
</clipPath>
</defs>
</svg>
