<svg width="28" height="28" viewBox="0 0 28 28" fill="none" xmlns="http://www.w3.org/2000/svg">
<path fill-rule="evenodd" clip-rule="evenodd" d="M9.91659 1.16666C9.22765 1.16652 8.54988 1.34069 7.94637 1.67296C7.34286 2.00523 6.83323 2.48479 6.46492 3.06701C6.09661 3.64922 5.8816 4.31516 5.8399 5.00283C5.7982 5.6905 5.93116 6.37754 6.22642 7H3.49992C3.1905 7 2.89375 7.12291 2.67496 7.34171C2.45617 7.5605 2.33325 7.85724 2.33325 8.16666V12.8333C2.33325 13.1427 2.45617 13.4395 2.67496 13.6583C2.89375 13.8771 3.1905 14 3.49992 14V22.1667C3.49992 23.0949 3.86867 23.9852 4.52505 24.6415C5.18142 25.2979 6.07166 25.6667 6.99992 25.6667H20.9999C21.9282 25.6667 22.8184 25.2979 23.4748 24.6415C24.1312 23.9852 24.4999 23.0949 24.4999 22.1667V14C24.8093 14 25.1061 13.8771 25.3249 13.6583C25.5437 13.4395 25.6666 13.1427 25.6666 12.8333V8.16666C25.6666 7.85724 25.5437 7.5605 25.3249 7.34171C25.1061 7.12291 24.8093 7 24.4999 7H21.7734C22.0687 6.37754 22.2016 5.6905 22.1599 5.00283C22.1182 4.31516 21.9032 3.64922 21.5349 3.06701C21.1666 2.48479 20.657 2.00523 20.0535 1.67296C19.45 1.34069 18.7722 1.16652 18.0833 1.16666C17.3003 1.16658 16.5273 1.34161 15.8208 1.67893C15.1143 2.01624 14.4921 2.50731 13.9999 3.11616C13.5077 2.50731 12.8856 2.01624 12.1791 1.67893C11.4725 1.34161 10.6995 1.16658 9.91659 1.16666ZM15.1666 23.3333H20.9999C21.3093 23.3333 21.6061 23.2104 21.8249 22.9916C22.0437 22.7728 22.1666 22.4761 22.1666 22.1667V14H15.1666V23.3333ZM12.8333 14V23.3333H6.99992C6.6905 23.3333 6.39375 23.2104 6.17496 22.9916C5.95617 22.7728 5.83325 22.4761 5.83325 22.1667V14H12.8333ZM18.0833 7C18.5474 7 18.9925 6.81562 19.3207 6.48743C19.6489 6.15925 19.8333 5.71413 19.8333 5.25C19.8333 4.78587 19.6489 4.34075 19.3207 4.01256C18.9925 3.68437 18.5474 3.5 18.0833 3.5C17.3097 3.5 16.5678 3.80729 16.0209 4.35427C15.4739 4.90125 15.1666 5.64312 15.1666 6.41666V7H18.0833ZM12.8333 7V6.41666C12.8333 5.64312 12.526 4.90125 11.979 4.35427C11.432 3.80729 10.6901 3.5 9.91659 3.5C9.45246 3.5 9.00734 3.68437 8.67915 4.01256C8.35096 4.34075 8.16659 4.78587 8.16659 5.25C8.16659 5.71413 8.35096 6.15925 8.67915 6.48743C9.00734 6.81562 9.45246 7 9.91659 7H12.8333Z" fill="black"/>
</svg>
