<svg width="28" height="28" viewBox="0 0 28 28" fill="none" xmlns="http://www.w3.org/2000/svg">
<path d="M5.492 2.79C5.51351 2.56385 5.62154 2.35475 5.79355 2.20636C5.96555 2.05797 6.18823 1.98175 6.41508 1.99362C6.64194 2.00549 6.85545 2.10454 7.01102 2.27007C7.16659 2.43561 7.25221 2.65484 7.25 2.882V8.749C7.25 8.94791 7.32902 9.13868 7.46967 9.27933C7.61032 9.41998 7.80109 9.499 8 9.499C8.19891 9.499 8.38968 9.41998 8.53033 9.27933C8.67098 9.13868 8.75 8.94791 8.75 8.749V2.75C8.75 2.55109 8.82902 2.36032 8.96967 2.21967C9.11032 2.07902 9.30109 2 9.5 2C9.69891 2 9.88968 2.07902 10.0303 2.21967C10.171 2.36032 10.25 2.55109 10.25 2.75V8.749C10.25 8.94791 10.329 9.13868 10.4697 9.27933C10.6103 9.41998 10.8011 9.499 11 9.499C11.1989 9.499 11.3897 9.41998 11.5303 9.27933C11.671 9.13868 11.75 8.94791 11.75 8.749V2.882C11.7526 2.65783 11.8404 2.44307 11.9957 2.28136C12.151 2.11964 12.362 2.02312 12.5858 2.0114C12.8097 1.99969 13.0297 2.07366 13.2009 2.21828C13.3722 2.36291 13.482 2.56733 13.508 2.79C13.584 3.512 14 7.575 14 9.5C14 10.838 13.415 12.04 12.49 12.864C12.156 13.16 12 13.465 12 13.721V14.448L12.001 14.495C12.043 15.094 12.5 21.782 12.5 23C12.5 23.394 12.4224 23.7841 12.2716 24.148C12.1209 24.512 11.8999 24.8427 11.6213 25.1213C11.3427 25.3999 11.012 25.6209 10.6481 25.7716C10.2841 25.9224 9.89397 26 9.5 26C9.10603 26 8.71593 25.9224 8.35195 25.7716C7.98797 25.6209 7.65726 25.3999 7.37868 25.1213C7.1001 24.8427 6.87913 24.512 6.72836 24.148C6.5776 23.7841 6.5 23.394 6.5 23C6.5 21.782 6.958 15.094 6.999 14.495L7 14.448V13.721C7 13.466 6.844 13.161 6.51 12.864C6.03502 12.4417 5.65489 11.9236 5.39462 11.3438C5.13435 10.7639 4.99986 10.1356 5 9.5C5 7.575 5.416 3.512 5.492 2.79ZM18.955 14L18.923 14.556C18.876 15.373 18.813 16.476 18.751 17.618C18.627 19.885 18.5 22.352 18.5 23C18.5 23.394 18.5776 23.7841 18.7284 24.148C18.8791 24.512 19.1001 24.8427 19.3787 25.1213C19.6573 25.3999 19.988 25.6209 20.3519 25.7716C20.7159 25.9224 21.106 26 21.5 26C21.894 26 22.2841 25.9224 22.6481 25.7716C23.012 25.6209 23.3427 25.3999 23.6213 25.1213C23.8999 24.8427 24.1209 24.512 24.2716 24.148C24.4224 23.7841 24.5 23.394 24.5 23C24.5 22.279 24.342 19.526 24.206 17.145L24.202 17.079C24.093 15.18 24 13.55 24 13.25V2.75C24 2.55109 23.921 2.36032 23.7803 2.21967C23.6397 2.07902 23.4489 2 23.25 2H22.75C20.9598 2 19.2429 2.71116 17.977 3.97703C16.7112 5.2429 16 6.95979 16 8.75V12.25C16 13.216 16.784 14 17.75 14H18.955Z" fill="black"/>
</svg>
