<svg width="40" height="40" viewBox="0 0 40 40" fill="none" xmlns="http://www.w3.org/2000/svg">
<g clip-path="url(#clip0_156_25801)">
<circle cx="20" cy="20" r="20" fill="#EEA14E"/>
<path d="M11.4289 10.6977C11.4477 10.4998 11.5419 10.3169 11.6918 10.1871C11.8418 10.0573 12.0359 9.99067 12.2337 10.0011C12.4314 10.0114 12.6176 10.0981 12.7532 10.2429C12.8888 10.3877 12.9635 10.5794 12.9615 10.7781V15.9101C12.9615 16.0841 13.0304 16.251 13.153 16.374C13.2757 16.4971 13.442 16.5662 13.6154 16.5662C13.7888 16.5662 13.9551 16.4971 14.0777 16.374C14.2003 16.251 14.2692 16.0841 14.2692 15.9101V10.6627C14.2692 10.4887 14.3381 10.3218 14.4607 10.1988C14.5834 10.0758 14.7497 10.0066 14.9231 10.0066C15.0965 10.0066 15.2628 10.0758 15.3854 10.1988C15.508 10.3218 15.5769 10.4887 15.5769 10.6627V15.9101C15.5769 16.0841 15.6458 16.251 15.7684 16.374C15.8911 16.4971 16.0574 16.5662 16.2308 16.5662C16.4042 16.5662 16.5705 16.4971 16.6931 16.374C16.8157 16.251 16.8846 16.0841 16.8846 15.9101V10.7781C16.8869 10.5821 16.9635 10.3942 17.0988 10.2527C17.2342 10.1113 17.4181 10.0269 17.6133 10.0166C17.8085 10.0064 18.0002 10.0711 18.1495 10.1976C18.2989 10.3241 18.3946 10.5029 18.4172 10.6977C18.4835 11.3292 18.8462 14.8832 18.8462 16.5671C18.8462 17.7374 18.3362 18.7889 17.5297 19.5096C17.2386 19.7685 17.1026 20.0353 17.1026 20.2593V20.8952L17.1034 20.9363C17.1401 21.4603 17.5385 27.3104 17.5385 28.3758C17.5385 28.7204 17.4708 29.0617 17.3394 29.3801C17.2079 29.6984 17.0153 29.9877 16.7724 30.2314C16.5296 30.4751 16.2413 30.6684 15.9239 30.8002C15.6066 30.9321 15.2665 31 14.9231 31C14.5796 31 14.2395 30.9321 13.9222 30.8002C13.6049 30.6684 13.3166 30.4751 13.0737 30.2314C12.8309 29.9877 12.6382 29.6984 12.5068 29.3801C12.3753 29.0617 12.3077 28.7204 12.3077 28.3758C12.3077 27.3104 12.707 21.4603 12.7427 20.9363L12.7436 20.8952V20.2593C12.7436 20.0362 12.6076 19.7694 12.3164 19.5096C11.9023 19.1402 11.5709 18.687 11.344 18.1798C11.1171 17.6727 10.9999 17.123 11 16.5671C11 14.8832 11.3627 11.3292 11.4289 10.6977ZM23.1659 20.5033L23.138 20.9897C23.097 21.7043 23.0421 22.6691 22.9881 23.6681C22.8799 25.6511 22.7692 27.809 22.7692 28.3758C22.7692 28.7204 22.8369 29.0617 22.9683 29.3801C23.0998 29.6984 23.2924 29.9877 23.5353 30.2314C23.7781 30.4751 24.0664 30.6684 24.3838 30.8002C24.7011 30.9321 25.0412 31 25.3846 31C25.7281 31 26.0682 30.9321 26.3855 30.8002C26.7028 30.6684 26.9911 30.4751 27.234 30.2314C27.4768 29.9877 27.6695 29.6984 27.8009 29.3801C27.9324 29.0617 28 28.7204 28 28.3758C28 27.7452 27.8623 25.337 27.7437 23.2543L27.7402 23.1966C27.6452 21.5355 27.5641 20.1097 27.5641 19.8473V10.6627C27.5641 10.4887 27.4952 10.3218 27.3726 10.1988C27.25 10.0758 27.0837 10.0066 26.9103 10.0066H26.4744C24.9137 10.0066 23.4169 10.6287 22.3133 11.736C21.2097 12.8433 20.5897 14.3451 20.5897 15.911V18.9726C20.5897 19.8175 21.2732 20.5033 22.1154 20.5033H23.1659Z" fill="white"/>
</g>
<defs>
<clipPath id="clip0_156_25801">
<rect width="40" height="40" fill="white"/>
</clipPath>
</defs>
</svg>
